<svg id="Capa_1" data-name="Capa 1" xmlns="http://www.w3.org/2000/svg" viewBox="0 0 215.89 220.26"><defs><style>.cls-1{fill:#fff;}</style></defs><path class="cls-1" d="M110.13,0A108.07,108.07,0,0,0,2.18,107.94c0,23.3,9.46,44.21,13.52,52.13a7.5,7.5,0,0,0,13.35-6.86c-3.57-6.94-11.86-25.25-11.86-45.27a92.95,92.95,0,1,1,92.94,92.95A96.25,96.25,0,0,1,68.24,191a7.52,7.52,0,0,0-5.66-.44L15.34,205.61a7.5,7.5,0,0,0,2.28,14.65,7.28,7.28,0,0,0,2.28-.36l44.39-14.18a110.44,110.44,0,0,0,45.84,10.17A107.95,107.95,0,1,0,110.13,0Z" transform="translate(-2.18)"/><path class="cls-1" d="M88.85,89.54A7.5,7.5,0,1,0,98,101.43c2.3-1.76,8.41-6.45,7.52-14.84-.56-5-5.42-11.83-9.41-16.69-5.83-7.12-10.76-11.33-14.64-12.52a16.33,16.33,0,0,0-11.07.53C62.75,61,57.36,66,54.8,72.54c-2.49,6.34-2,13.44,1.31,20.53a134.66,134.66,0,0,0,31.1,42.42l.15.14A134.64,134.64,0,0,0,133,161.92a29.56,29.56,0,0,0,9.61,1.69A23.19,23.19,0,0,0,153.58,161c6.19-3.26,10.62-9.17,12.82-17.11a16.26,16.26,0,0,0-.69-11c-1.62-3.74-6.35-8.18-14.07-13.19-5.26-3.42-12.6-7.5-17.64-7.5h0c-8.4,0-12.39,6.62-13.9,9.1A7.5,7.5,0,0,0,132.92,129a13.7,13.7,0,0,1,1.21-1.77c4.24,1.23,15.57,8.64,17.89,11.76a1.85,1.85,0,0,1-.08.88c-.74,2.67-2.27,6.2-5.35,7.83-2.88,1.51-6.31.86-8.68.05a119.92,119.92,0,0,1-40.54-23.28h0A119.68,119.68,0,0,1,69.67,86.66c-1.07-2.27-2.1-5.61-.91-8.63,1.27-3.25,4.61-5.15,7.18-6.18a1.75,1.75,0,0,1,.87-.18c3.36,2,12,12.4,13.66,16.48A14.65,14.65,0,0,1,88.85,89.54Z" transform="translate(-2.18)"/></svg>