<svg id="Capa_1" data-name="Capa 1" xmlns="http://www.w3.org/2000/svg" viewBox="0 0 236.27 225.74"><defs><style>.cls-1{fill:#fff;}</style></defs><path class="cls-1" d="M118.14,5.26C53,5.26,0,49.4,0,103.65c0,53,46,95.19,107,98.18a7.5,7.5,0,0,0,.73-15C54.87,184.26,15,148.49,15,103.65c0-46,46.27-83.39,103.14-83.39s103.13,37.41,103.13,83.39c0,42.78-54.63,89.23-108.59,113a7.5,7.5,0,1,0,6,13.73c28.93-12.74,57.46-31.56,78.28-51.62,25.68-24.76,39.26-50.73,39.26-75.1C236.27,49.4,183.28,5.26,118.14,5.26Z" transform="translate(0 -5.26)"/><path class="cls-1" d="M60.08,79.67a5.91,5.91,0,0,0-4.76-2.28,5.82,5.82,0,0,0-4.75,2.33A9.43,9.43,0,0,0,49,85.62v39.14c0,2.74.56,4.74,1.72,6.11s3.14,2.2,5.67,2.2H77.62a6.31,6.31,0,0,0,4.74-1.77A6.11,6.11,0,0,0,84,126.88a6.25,6.25,0,0,0-1.7-4.43,6.13,6.13,0,0,0-4.72-1.83H61.76v-35A9.15,9.15,0,0,0,60.08,79.67Z" transform="translate(0 -5.26)"/><path class="cls-1" d="M93.76,77.39A5.8,5.8,0,0,0,89,79.72a9.37,9.37,0,0,0-1.64,5.9v40.05a9.29,9.29,0,0,0,1.67,5.94,5.79,5.79,0,0,0,4.69,2.33,5.92,5.92,0,0,0,4.78-2.31,9.44,9.44,0,0,0,1.68-6v-40a9.31,9.31,0,0,0-1.69-6A6,6,0,0,0,93.76,77.39Z" transform="translate(0 -5.26)"/><path class="cls-1" d="M119.62,104l12.77,22.89,0,.05.9,1.5.54.88a14,14,0,0,0,1.82,2.4,7.07,7.07,0,0,0,5.35,2.26c2.51,0,6.74-1.13,6.74-8.7v-40a9.24,9.24,0,0,0-1.48-5.61,5.53,5.53,0,0,0-4.61-2.28,5.45,5.45,0,0,0-4.53,2.28,9.27,9.27,0,0,0-1.47,5.62V107.9L122.49,84.58l-.68-1.25-.69-1.26a14.42,14.42,0,0,0-1.54-2.3,6.81,6.81,0,0,0-2.07-1.7,6.12,6.12,0,0,0-3-.68,6.5,6.5,0,0,0-4,1.4A7.36,7.36,0,0,0,108,82.23l0,0a15,15,0,0,0-.57,4.56v39.21a9.35,9.35,0,0,0,1.49,5.56l0,0a5.62,5.62,0,0,0,4.6,2.29,5.55,5.55,0,0,0,4.55-2.27,9,9,0,0,0,1.57-5.62V104Z" transform="translate(0 -5.26)"/><path class="cls-1" d="M185.28,90.18a6.06,6.06,0,0,0,4.58-1.7,6,6,0,0,0,1.57-4.27A5.9,5.9,0,0,0,189.85,80a6,6,0,0,0-4.57-1.71H162a8.53,8.53,0,0,0-4,.88,5.86,5.86,0,0,0-2.68,3.06,11.43,11.43,0,0,0-.71,4.38v38.19c0,2.74.57,4.75,1.74,6.12s3.12,2.19,5.65,2.19H186a6,6,0,0,0,4.6-1.76,6.07,6.07,0,0,0,1.58-4.29,6.18,6.18,0,0,0-1.56-4.36,6.09,6.09,0,0,0-4.62-1.77H167.44V110.42H183.7a5.77,5.77,0,0,0,4.52-1.74,6,6,0,0,0,1.49-4.16,5.56,5.56,0,0,0-6-5.85H167.44V90.18Z" transform="translate(0 -5.26)"/></svg>