<svg id="Capa_1" data-name="Capa 1" xmlns="http://www.w3.org/2000/svg" viewBox="0 0 198.74 160.26"><defs><style>.cls-1{fill:#fff;}</style></defs><path class="cls-1" d="M197.4,42.48A7.51,7.51,0,0,0,187,40.59L163.67,56.75a7.49,7.49,0,0,0-3.21,6.49c.06,1.54.1,3,.1,4.42,0,47.6-36.23,96.84-96.84,96.84a96.42,96.42,0,0,1-35.85-6.89l35.94-10.05a7.5,7.5,0,0,0-4-14.45L5.48,148.3a7.5,7.5,0,0,0-2,13.54A111.53,111.53,0,0,0,63.72,179.5c42.05,0,68.39-19.87,83.09-36.54,18.27-20.73,28.75-48.17,28.75-75.3,0-.3,0-.59,0-.89l20-13.85A7.51,7.51,0,0,0,197.4,42.48Z" transform="translate(0 -19.24)"/><path class="cls-1" d="M16.56,40.14,92.14,78.46a7.5,7.5,0,0,0,10.7-8.39,29.21,29.21,0,0,1,28.42-35.83,29.3,29.3,0,0,1,21.29,9.21,7.5,7.5,0,0,0,8,1.92l23.33-8.48a7.5,7.5,0,1,0-5.12-14.1l-19,6.9A44.2,44.2,0,0,0,87.28,59.18L23.34,26.76a7.5,7.5,0,0,0-6.78,13.38Z" transform="translate(0 -19.24)"/><path class="cls-1" d="M12.69,85.05,29.3,89.64a7.7,7.7,0,0,0,2,.27,7.5,7.5,0,0,0,2-14.73L16.68,70.59a7.5,7.5,0,0,0-4,14.46Z" transform="translate(0 -19.24)"/><path class="cls-1" d="M27.25,107.38a7.5,7.5,0,0,0,.28,15h.29l16.56-.63a7.5,7.5,0,1,0-.57-15Z" transform="translate(0 -19.24)"/></svg>